<svg width="37" height="40" viewBox="0 0 37 40" fill="none" xmlns="http://www.w3.org/2000/svg">
<path opacity="0.2" d="M36.4321 39.3779C36.4321 39.0368 28.7826 38.7559 19.3577 38.7559C9.93283 38.7559 2.28333 39.0368 2.28333 39.3779C2.28333 39.7191 9.93283 40 19.3577 40C28.8045 40 36.4321 39.7191 36.4321 39.3779Z" fill="#5D5D5D"/>
<path d="M19.599 7.87323C27.0293 7.87323 33.0569 13.3916 33.0569 20.1942V32.5152H19.599C12.1687 32.5152 6.14111 26.9968 6.14111 20.1942V7.87323H19.599Z" fill="white"/>
<path opacity="0.3" d="M31.1281 13.8531C30.0103 15.037 29.3308 16.5822 29.3308 18.2678C29.3308 20.7761 30.8213 22.9634 33.035 24.1473V20.1942C33.035 17.8865 32.3555 15.7193 31.1281 13.8531Z" fill="white"/>
<path d="M25.8457 9.29791C23.7415 10.4016 22.3387 12.4685 22.3387 14.8564C22.3387 18.3881 25.4731 21.2577 29.3307 21.2577C30.6896 21.2577 31.9609 20.8965 33.0349 20.2744V20.1942C33.0349 15.4584 30.1198 11.3447 25.8457 9.29791Z" fill="white"/>
<path opacity="0.5" d="M15.2811 10.2606C11.818 10.2606 8.63981 11.3642 6.14111 13.2304V20.2137C6.14111 27.0163 12.1687 32.5346 19.599 32.5346H26.043C28.3883 30.1668 29.8129 27.0364 29.8129 23.5849C29.8129 16.2204 23.3032 10.2606 15.2811 10.2606Z" fill="#F8F6EC"/>
<path d="M33.0349 32.4951L19.599 32.5152C12.1687 32.5152 6.14111 26.9969 6.14111 20.1942V7.89331L33.0349 32.4951Z" fill="white"/>
<path opacity="0.3" d="M8.22327 12.288C8.22327 21.6391 16.5084 29.2043 26.7004 29.2043C27.5772 29.2043 28.432 29.1441 29.2649 29.0437L8.39861 9.96027C8.28902 10.7228 8.22327 11.5054 8.22327 12.288Z" fill="white"/>
<path opacity="0.3" d="M33.0349 32.5153L6.25061 7.99371C9.40686 12.3081 13.0453 16.6826 16.7495 20.2946C19.6427 23.104 27.9936 29.3849 33.0349 32.5153Z" fill="white"/>
<path opacity="0.3" d="M14.9304 15.92L6.14111 7.89331V20.2143C6.14111 25.6524 9.99875 30.2677 15.3249 31.8931C13.0454 29.7861 11.6426 26.8965 11.6426 23.726C11.6426 20.716 12.892 17.9869 14.9304 15.92Z" fill="white"/>
<path opacity="0.3" d="M26.8978 26.8966C24.6183 29.4451 21.1552 31.0906 17.2757 31.0906C14.6893 31.0906 12.2783 30.3682 10.2837 29.124C12.6947 31.231 15.9606 32.5354 19.5771 32.5354H33.035V32.5153L26.8978 26.8966Z" fill="white"/>
<path opacity="0.3" d="M6.93017 15.2578C6.93017 13.2712 7.30279 11.3448 8.00417 9.57892L6.14111 7.89331V20.2143C6.14111 27.0169 12.1687 32.5353 19.599 32.5353H33.0569V32.5152L31.7198 31.2911C29.7691 31.9333 27.6869 32.2744 25.495 32.2744C15.2372 32.2543 6.93017 24.649 6.93017 15.2578Z" fill="#F8F6EC"/>
<path d="M32.8155 34.9031C33.758 34.6623 34.7443 35.184 34.9854 36.0469C35.2484 36.9098 34.6786 37.8128 33.7141 38.0335C32.7717 38.2743 31.7853 37.7526 31.5442 36.8897C31.3031 36.0269 31.873 35.1439 32.8155 34.9031ZM32.4648 33.679C30.7771 34.1004 29.7688 35.6656 30.2291 37.2108C30.6675 38.7559 32.399 39.679 34.0868 39.2576C35.7745 38.8362 36.7827 37.2509 36.3224 35.7258C35.8841 34.1807 34.1525 33.2777 32.4648 33.679Z" fill="white"/>
<path opacity="0.5" d="M34.7001 37.4513C34.459 37.7322 34.1303 37.9529 33.7357 38.0533C32.7932 38.2941 31.8069 37.7723 31.5658 36.9095C31.3905 36.2673 31.6316 35.6252 32.1576 35.2439C31.8946 34.9028 31.6754 34.5215 31.4562 34.1403C30.4042 34.8225 29.8781 36.0466 30.2288 37.2506C30.6672 38.7957 32.3987 39.7188 34.0864 39.2974C34.8755 39.0967 35.5111 38.6553 35.9276 38.0733C35.5111 37.8727 35.0947 37.672 34.7001 37.4513Z" fill="white"/>
<path d="M6.77631 34.9031C7.7188 34.6824 8.70512 35.2041 8.94623 36.067C9.18733 36.9298 8.61745 37.8328 7.67496 38.0536C6.73247 38.2743 5.74615 37.7526 5.50504 36.8897C5.26394 36.0268 5.83382 35.1238 6.77631 34.9031ZM6.42561 33.679C4.7379 34.0804 3.72966 35.6656 4.16802 37.2108C4.60639 38.7559 6.33794 39.679 8.02565 39.2776C9.71337 38.8763 10.7216 37.291 10.3052 35.7459C9.84488 34.2008 8.11333 33.2777 6.42561 33.679Z" fill="white"/>
<path opacity="0.5" d="M8.63962 37.4713C8.39852 37.7523 8.06975 37.973 7.67522 38.0533C6.73273 38.274 5.7464 37.7523 5.5053 36.8894C5.32995 36.2473 5.59297 35.6051 6.09709 35.2238C5.83407 34.8827 5.61489 34.5014 5.41763 34.1202C4.36554 34.7824 3.81759 36.0065 4.16828 37.2105C4.60665 38.7556 6.3382 39.6787 8.02591 39.2773C8.81497 39.0967 9.47252 38.6352 9.86705 38.0533C9.42868 37.8927 9.03415 37.6921 8.63962 37.4713Z" fill="white"/>
<path d="M6.99588 7.03037C6.57944 7.03037 6.22874 6.7093 6.22874 6.32803C6.22874 4.68256 5.72462 3.43842 4.76021 2.61569C3.20401 1.27122 0.858744 1.41168 0.836826 1.41168C0.420377 1.45182 0.0477647 1.15082 0.00392799 0.769547C-0.0399087 0.388279 0.288867 0.0471443 0.705316 0.00701083C0.836826 0.00701083 3.73005 -0.193657 5.79038 1.55215C7.10548 2.65582 7.76303 4.26116 7.76303 6.30797C7.76303 6.7093 7.43425 7.03037 6.99588 7.03037Z" fill="white"/>
</svg>
