<?xml version="1.0" encoding="utf-8"?><svg viewBox="0 0 200 60" xmlns="http://www.w3.org/2000/svg" xmlns:xlink="http://www.w3.org/1999/xlink"><style>:root>svg{display:none}:root>svg:target{display:block}</style><svg viewBox="0 0 50 50" id="all-day" xmlns="http://www.w3.org/2000/svg"><g clip-path="url(#aaclip0)"><path d="M48.866 17.536a1.465 1.465 0 00-2.796.873c.664 2.125 1 4.343 1 6.591 0 12.17-9.9 22.07-22.07 22.07S2.93 37.17 2.93 25 12.83 2.93 25 2.93a22.065 22.065 0 0115.165 6.037l-3.141-.783a1.465 1.465 0 00-.709 2.843l8.44 2.103.012.003a1.466 1.466 0 001.386-.397c.364-.37.505-.904.371-1.405l-2.242-8.388a1.465 1.465 0 00-2.83.757l.878 3.284A24.992 24.992 0 0025 0C18.322 0 12.044 2.6 7.322 7.322 2.6 12.044 0 18.322 0 25c0 6.678 2.6 12.956 7.322 17.678A24.837 24.837 0 0025 50c6.678 0 12.956-2.6 17.678-7.322C47.4 37.956 50 31.678 50 25c0-2.545-.382-5.056-1.134-7.464z"/><path d="M28.337 26.192h-.123v-7.46a1.465 1.465 0 00-2.644-.869l-6.558 8.91a1.464 1.464 0 001.177 2.333l5.095.01v2.24a1.465 1.465 0 002.93 0v-2.234H28.334a1.465 1.465 0 00.003-2.93zm-5.252-.01l2.2-2.989v2.993l-2.2-.004z"/><path d="M17.597 29.877h-4.338c.688-.8 1.496-1.583 2.25-2.314 1.906-1.849 3.553-3.445 3.553-5.301a5.062 5.062 0 00-5.058-5.055 5.043 5.043 0 00-4.655 3.088 1.465 1.465 0 002.699 1.139 2.118 2.118 0 011.957-1.297c1.172 0 2.127.953 2.127 2.125 0 .032-.018.332-.615 1.072-.516.64-1.26 1.362-2.048 2.126-1.589 1.542-3.39 3.288-4.28 5.286a1.463 1.463 0 001.338 2.06h7.07a1.465 1.465 0 000-2.929zM36.635 22.269c-.49 0-.961.092-1.4.258v-3.904a1.465 1.465 0 10-2.93 0v12.754a1.465 1.465 0 102.93 0v-4.102c.018-.092.028-.188.028-.286 0-.97.628-1.79 1.372-1.79.745 0 1.373.82 1.373 1.79v4.388a1.465 1.465 0 102.93 0V26.99c0-2.602-1.93-4.72-4.303-4.72z"/></g><defs><clipPath id="aaclip0"><path d="M0 0h50v50H0z"/></clipPath></defs></svg><svg viewBox="0 0 30 22" id="burger" xmlns="http://www.w3.org/2000/svg"><path d="M0 1h30M0 11h30M0 21h30"/></svg><svg viewBox="0 0 32 31" id="cart-link" xmlns="http://www.w3.org/2000/svg"><path d="M31.798 4.039a.923.923 0 00-.721-.347H6.509L5.822.715A.923.923 0 004.923 0h-4a.923.923 0 000 1.846H4.19l4.663 20.208c.097.419.47.715.9.715h18.494a.923.923 0 100-1.846h-17.76l-.71-3.077h18.532c.431 0 .806-.3.9-.72l2.77-12.308a.923.923 0 00-.18-.78zM27.569 16H9.35L6.937 5.538h22.987L27.57 16zM13.538 24a3.388 3.388 0 00-3.384 3.385 3.388 3.388 0 003.384 3.384 3.388 3.388 0 003.385-3.384A3.388 3.388 0 0013.538 24zm0 4.923A1.54 1.54 0 0112 27.385c0-.849.69-1.539 1.538-1.539.849 0 1.539.69 1.539 1.539a1.54 1.54 0 01-1.539 1.538zM24.615 24a3.388 3.388 0 00-3.384 3.385 3.388 3.388 0 003.384 3.384A3.388 3.388 0 0028 27.385 3.388 3.388 0 0024.615 24zm0 4.923a1.54 1.54 0 01-1.538-1.538c0-.849.69-1.539 1.538-1.539.849 0 1.539.69 1.539 1.539a1.54 1.54 0 01-1.539 1.538z"/></svg><svg viewBox="0 0 24 24" id="check-icon" xmlns="http://www.w3.org/2000/svg"><path d="M22 13c0 5.523-4.477 10-10 10S2 18.523 2 13 6.477 3 12 3s10 4.477 10 10z"/><path d="M22 12c0 5.523-4.477 10-10 10S2 17.523 2 12 6.477 2 12 2s10 4.477 10 10z"/><path d="M16 9l-6 6-2.5-2.5-2.125 2.1 2.5 2.5 2 2 .125.1 8.125-8.1L16 9z"/><path d="M16 8l-6 6-2.5-2.5-2.125 2.1 2.5 2.5 2 2 .125.1 8.125-8.1L16 8z"/></svg><svg viewBox="0 0 19 32" id="chevron" xmlns="http://www.w3.org/2000/svg"><path d="M.385 17.015l16.013 14.593a1.35 1.35 0 001.903 0 1.335 1.335 0 000-1.894L3.253 16 18.3 2.286a1.335 1.335 0 000-1.894 1.35 1.35 0 00-1.903 0L.383 14.985c-.28.279-.4.648-.381 1.014a1.33 1.33 0 00.383 1.016z"/></svg><svg viewBox="0 0 24 24" id="close" xmlns="http://www.w3.org/2000/svg"><g clip-path="url(#afclip0)"><path d="M13.407 12.007L23.695 1.719A1 1 0 1022.28.306L11.994 10.593 1.705.305A1 1 0 00.292 1.72L10.58 12.007.292 22.294a1 1 0 001.414 1.414L11.993 13.42l10.288 10.288a1 1 0 001.414-1.414L13.407 12.007z"/></g><defs><clipPath id="afclip0"><path d="M0 0h24v24H0z"/></clipPath></defs></svg><svg viewBox="0 0 50 50" id="courier-delivery" xmlns="http://www.w3.org/2000/svg"><path d="M48.512 34.392a1.463 1.463 0 001.383-1.46c0-4.216-3.384-7.518-7.703-7.518h-1.428l-1.745-8.281a4.76 4.76 0 002.865-4.363 4.756 4.756 0 00-4.748-4.754h-6.75c-.808 0-1.463.656-1.463 1.465v1.824h-3.596a1.464 1.464 0 000 2.93h3.596v1.824c0 .809.655 1.465 1.463 1.465h.65a8.187 8.187 0 00-1.944 5.302v8.336a.077.077 0 01-.077.078h-5.91a.078.078 0 01-.075-.056l-1.593-5.39a3.017 3.017 0 002.233-2.91c0-3.307-2.687-5.997-5.989-5.997H4.499A4.507 4.507 0 000 21.391a4.509 4.509 0 003.871 4.46 11.307 11.307 0 00-3.779 8.441v4.561c0 .809.656 1.465 1.464 1.465H2.82c.682 3.402 3.689 5.973 7.284 5.973 3.596 0 6.603-2.57 7.284-5.973h17.898c.681 3.402 3.688 5.973 7.284 5.973 4.096 0 7.429-3.336 7.429-7.438a7.405 7.405 0 00-1.488-4.46zm-1.783-2.926h-3.294a7.425 7.425 0 00-2.395.107v-3.23h1.152c2.143 0 3.914 1.29 4.537 3.123zm-14.88-20.52h5.287a1.825 1.825 0 010 3.648h-5.287v-3.648zm-8.744 23.223h5.91a3.009 3.009 0 003.003-3.007v-8.336a5.297 5.297 0 014.123-5.16l1.974 9.366v5.873a7.452 7.452 0 00-2.828 4.483H20.74c-.683-5.256-5.023-9.188-10.44-9.188-2.416 0-4.585.79-6.295 2.146 1.413-2.646 4.2-4.45 7.4-4.45h7.01l1.809 6.12a3.021 3.021 0 002.88 2.153zM3.137 37.388c.256-1.558.922-2.964 1.94-4.053 1.329-1.422 3.184-2.205 5.223-2.205 3.774 0 6.823 2.652 7.477 6.258H3.137zM4.5 22.966a1.575 1.575 0 010-3.15H17.68a3.068 3.068 0 013.063 3.067c-.013.06-.11.1-.289.083H4.5zm5.606 20.396a4.51 4.51 0 01-4.258-3.044h8.516a4.51 4.51 0 01-4.258 3.044zm32.466 0a4.511 4.511 0 01-4.503-4.51 4.511 4.511 0 014.503-4.508 4.511 4.511 0 014.503 4.509 4.511 4.511 0 01-4.503 4.509z"/><path d="M42.57 40.328a1.474 1.474 0 10-.001-2.948 1.474 1.474 0 00.002 2.947zM1.524 12.64h13.122a1.464 1.464 0 000-2.929H1.524a1.464 1.464 0 000 2.93zM6.385 6.638H19.62a1.464 1.464 0 000-2.93H6.385a1.464 1.464 0 000 2.93z"/></svg><svg viewBox="0 0 32 22" id="delivery" xmlns="http://www.w3.org/2000/svg"><path d="M31.917 13.348l-1.62-2.478a3.866 3.866 0 00-3.25-1.749h-4.19v-2.41a2.671 2.671 0 00-2.669-2.67h-7.841A4.986 4.986 0 007.459 0 4.984 4.984 0 002.48 4.979c0 1.726.884 3.249 2.222 4.142H.508a.508.508 0 100 1.016h5.08v1.016H3.554a.508.508 0 100 1.016h2.032v1.015H.508a.508.508 0 100 1.017h5.08v2.25a2.548 2.548 0 00-1.525 2.328v.5c0 .282.228.509.509.509h4.505a2.811 2.811 0 002.732 2.173 2.81 2.81 0 002.733-2.173h9.773a2.811 2.811 0 002.733 2.173c1.329 0 2.444-.93 2.733-2.173h1.711c.28 0 .508-.227.508-.508v-5.654a.508.508 0 00-.083-.278zm-28.42-8.37a3.968 3.968 0 013.962-3.962 3.967 3.967 0 013.963 3.963 3.967 3.967 0 01-3.963 3.963 3.968 3.968 0 01-3.963-3.963zm3.106 9.223H7.62a.508.508 0 100-1.017H6.603V12.17h3.556a.508.508 0 100-1.016H6.603v-1.016h6.603a.508.508 0 000-1.016h-2.99a4.976 4.976 0 002.218-4.064h7.755c.91 0 1.652.742 1.652 1.653v9.522H6.603v-2.031zm15.238 4.57H14.59a2.796 2.796 0 00-.722-1.523h7.974v1.524zM6.61 17.249h3.142c-.382.413-.642.94-.721 1.524H5.079a1.532 1.532 0 011.53-1.524zm5.2 3.697a1.794 1.794 0 01-1.793-1.792c0-.988.805-1.792 1.792-1.792.989 0 1.793.804 1.793 1.792s-.804 1.792-1.793 1.792zm15.238 0a1.794 1.794 0 01-1.792-1.792c0-.988.804-1.792 1.792-1.792s1.792.804 1.792 1.792-.804 1.792-1.792 1.792zm3.936-2.173h-1.157a2.81 2.81 0 00-2.78-2.427 2.81 2.81 0 00-2.779 2.427h-1.41v-8.635h4.188c.976 0 1.874.482 2.401 1.288l1.537 2.352v4.995z"/><path d="M27.878 19.153a.83.83 0 11-1.661 0 .83.83 0 011.662 0zM12.64 19.153a.83.83 0 11-1.661 0 .83.83 0 011.661 0zM8.127 4.979V2.757a.508.508 0 10-1.016 0v2.056L6.074 6.235a.507.507 0 10.821.598L8.03 5.278a.508.508 0 00.097-.3zM26.876 10.645h-.971a.508.508 0 00-.508.508v3.555c0 .281.227.508.508.508h3.418a.874.874 0 00.764-.44.872.872 0 00.003-.88l-1.187-2.075a2.34 2.34 0 00-2.027-1.176zm-.463 3.556v-2.54h.463c.473 0 .911.254 1.145.664l1.072 1.876h-2.68z"/></svg><svg viewBox="0 0 32 32" id="facebook" xmlns="http://www.w3.org/2000/svg"><g clip-path="url(#aiclip0)"><path d="M21.33 5.313h2.92V.225C23.748.156 22.014 0 19.996 0c-4.212 0-7.098 2.65-7.098 7.519V12H8.25v5.688h4.648V32h5.699V17.69h4.46L23.764 12h-5.17V8.083c.002-1.644.445-2.77 2.735-2.77z"/></g><defs><clipPath id="aiclip0"><path d="M0 0h32v32H0z"/></clipPath></defs></svg><svg viewBox="0 0 32 29" id="favorite-link" xmlns="http://www.w3.org/2000/svg"><path d="M29.665 2.777C28.087.987 25.897 0 23.5 0c-3.372 0-5.506 2.014-6.703 3.703-.311.438-.575.878-.797 1.292a12.245 12.245 0 00-.797-1.292C14.006 2.013 11.872 0 8.5 0 6.103 0 3.913.986 2.335 2.777.829 4.486 0 6.774 0 9.22c0 2.662 1.04 5.139 3.272 7.793 1.994 2.373 4.864 4.818 8.187 7.65a385.452 385.452 0 013.883 3.34l.04.035a.935.935 0 001.236 0l.04-.035c1.364-1.193 2.644-2.284 3.883-3.34 3.323-2.832 6.193-5.277 8.187-7.65C30.96 14.36 32 11.883 32 9.22c0-2.446-.83-4.734-2.335-6.443zm-10.34 20.46c-1.068.909-2.167 1.845-3.325 2.852-1.158-1.007-2.257-1.943-3.325-2.853-6.503-5.542-10.8-9.203-10.8-14.016 0-1.99.663-3.837 1.866-5.203A6.258 6.258 0 018.5 1.875c2.57 0 4.232 1.584 5.174 2.912a11.113 11.113 0 011.435 2.854.937.937 0 001.782 0c.15-.461.591-1.662 1.436-2.854.94-1.328 2.602-2.912 5.173-2.912 1.851 0 3.541.76 4.759 2.142 1.203 1.366 1.866 3.213 1.866 5.203 0 4.813-4.297 8.474-10.8 14.016z"/></svg><svg viewBox="0 0 32 32" id="instagram" xmlns="http://www.w3.org/2000/svg"><g clip-path="url(#akclip0)"><path d="M16.005 7.784a8.21 8.21 0 00-8.21 8.21 8.21 8.21 0 008.21 8.211 8.21 8.21 0 008.211-8.21 8.21 8.21 0 00-8.21-8.21zm0 13.54a5.328 5.328 0 01-5.329-5.33 5.328 5.328 0 015.33-5.329 5.328 5.328 0 015.329 5.33 5.327 5.327 0 01-5.33 5.33z"/><path d="M22.597.101c-2.944-.137-10.236-.13-13.182 0C6.825.223 4.54.848 2.7 2.69-.377 5.767.016 9.913.016 15.995c0 6.224-.347 10.274 2.684 13.305 3.09 3.088 7.296 2.684 13.305 2.684 6.166 0 8.294.004 10.474-.84 2.964-1.15 5.201-3.8 5.42-8.559.138-2.945.13-10.236 0-13.182C31.635 3.785 28.62.379 22.597.1zm4.66 27.163C25.24 29.28 22.441 29.1 15.967 29.1c-6.667 0-9.34.099-11.291-1.857-2.247-2.236-1.84-5.827-1.84-11.27 0-7.367-.756-12.673 6.637-13.051 1.699-.06 2.199-.08 6.475-.08l.06.04c7.105 0 12.68-.744 13.015 6.648.076 1.686.093 2.193.093 6.462-.001 6.59.124 9.279-1.859 11.27z"/><path d="M24.541 9.379a1.919 1.919 0 100-3.838 1.919 1.919 0 000 3.838z"/></g><defs><clipPath id="akclip0"><path d="M0 0h32v32H0z"/></clipPath></defs></svg><svg viewBox="0 0 24 24" id="like" xmlns="http://www.w3.org/2000/svg"><defs><style>.ala{fill:#fff;stroke:#000;stroke-linecap:round;stroke-linejoin:round}</style></defs><path class="ala" d="M20 15.659a1.5 1.5 0 110 3h-1a1.5 1.5 0 011.5 1.5c0 .829-.672 1-1.5 1h-6.5c-2.851 0-3.5-.5-7-1v-8.5c2.45 0 6.5-4.5 6.5-8.5 0-1.581 2.189-2.17 3 .719.5 1.781-1 5.281-1 5.281h8a1.5 1.5 0 011.5 1.5c0 .829-.672 2-1.5 2h-1a1.5 1.5 0 010 3h-1M.5 10.159h5v12h-5z"/><path d="M3.25 19.159a.75.75 0 10.75.75.75.75 0 00-.75-.75z"/></svg><svg viewBox="0 0 24 33" id="location" xmlns="http://www.w3.org/2000/svg"><path d="M12 0C5.383 0 0 5.383 0 12c0 2.178.977 4.521 1.018 4.62.315.749.938 1.912 1.387 2.594l8.228 12.467c.336.51.835.804 1.367.804s1.03-.293 1.367-.804l8.229-12.467a19.277 19.277 0 001.387-2.594C23.023 16.522 24 14.18 24 12c0-6.617-5.383-12-12-12zm9.681 16.072a17.727 17.727 0 01-1.264 2.365l-8.229 12.467c-.162.247-.213.247-.376 0L3.584 18.437A17.735 17.735 0 012.32 16.07c-.012-.028-.908-2.185-.908-4.071C1.412 6.162 6.162 1.412 12 1.412c5.838 0 10.588 4.75 10.588 10.588 0 1.889-.898 4.051-.907 4.072z"/><path d="M12 5.648A6.36 6.36 0 005.647 12 6.36 6.36 0 0012 18.354 6.36 6.36 0 0018.353 12 6.36 6.36 0 0012 5.648zm0 11.294A4.947 4.947 0 017.059 12a4.947 4.947 0 014.94-4.941A4.947 4.947 0 0116.942 12 4.947 4.947 0 0112 16.943z"/></svg><svg viewBox="0 0 200 60" id="logo" xmlns="http://www.w3.org/2000/svg"><path d="M78.9 30.18c-2.109 0-3.863-.252-5.263-.756-1.382-.504-2.418-1.335-3.108-2.492-.672-1.176-1.008-2.744-1.008-4.704 0-1.997.345-3.565 1.036-4.704.71-1.139 1.754-1.95 3.136-2.436 1.4-.485 3.136-.728 5.208-.728 2.128 0 3.883.252 5.264.756 1.381.485 2.408 1.307 3.08 2.464.69 1.139 1.036 2.688 1.036 4.648 0 1.997-.355 3.584-1.064 4.76-.69 1.157-1.736 1.979-3.136 2.464-1.382.485-3.108.728-5.18.728zm0-2.324c1.27 0 2.316-.075 3.137-.224.84-.168 1.484-.448 1.932-.84.467-.41.784-.97.952-1.68.186-.728.28-1.661.28-2.8 0-1.157-.093-2.1-.28-2.828-.168-.747-.486-1.325-.952-1.736-.448-.41-1.092-.69-1.932-.84-.822-.168-1.867-.252-3.136-.252-1.25 0-2.287.084-3.108.252-.822.15-1.466.43-1.932.84-.467.41-.794.99-.98 1.736-.168.728-.252 1.67-.252 2.828 0 1.139.093 2.072.28 2.8.186.71.513 1.27.98 1.68.467.392 1.11.672 1.932.84.821.15 1.848.224 3.08.224zm-1.483 4.172l.084-8.988-.084-10.556h2.996l-.112 8.624L80.413 32l-2.996.028zM92.225 32l.112-9.072-.112-10.444.616-.056 1.652-.14c.672-.056 1.41-.103 2.212-.14a50.111 50.111 0 012.324-.056c1.773 0 3.145.56 4.116 1.68.989 1.101 1.484 2.763 1.484 4.984 0 1.381-.177 2.53-.532 3.444-.355.896-.831 1.596-1.428 2.1a5.317 5.317 0 01-1.988 1.092 8.215 8.215 0 01-2.24.308c-.616 0-1.25-.019-1.904-.056a18.912 18.912 0 00-1.344-.084V32h-2.968zm6.356-8.736c.56 0 1.008-.037 1.344-.112.355-.075.635-.205.84-.392.28-.28.467-.775.56-1.484.112-.71.168-1.643.168-2.8 0-.933-.047-1.643-.14-2.128-.075-.504-.177-.859-.308-1.064-.131-.224-.261-.373-.392-.448-.168-.13-.448-.233-.84-.308a6.114 6.114 0 00-1.4-.14c-.635 0-1.241.028-1.82.084a24.49 24.49 0 00-1.4.168v8.316c.187.019.607.075 1.26.168.672.093 1.381.14 2.128.14zM108.823 32V12.484h10.248v2.576l-8.596-.112 1.372-1.316-.224 8.288-1.288-1.092h8.036v2.492h-8.036l1.288-1.148.224 8.652-1.372-1.344 8.596-.056V32h-10.248zm14.71 0V12.484h2.968l-.084 9.464v8.82l-1.344-1.344h8.764l-1.344 1.344.028-8.68-.056-9.604h2.968l-.084 9.604.056 8.68-1.344-1.344h8.68l-1.344 1.344v-8.764l-.084-9.52h2.968V32h-20.748zm32.859.392a9.322 9.322 0 01-2.912-.448c-.915-.299-1.727-.821-2.436-1.568-.691-.747-1.232-1.783-1.624-3.108-.392-1.325-.588-3.015-.588-5.068 0-2.053.196-3.733.588-5.04.392-1.325.933-2.352 1.624-3.08.709-.747 1.521-1.26 2.436-1.54a9.322 9.322 0 012.912-.448c1.027 0 1.988.15 2.884.448.915.28 1.717.793 2.408 1.54.709.728 1.26 1.745 1.652 3.052.392 1.307.588 2.996.588 5.068 0 2.053-.196 3.743-.588 5.068-.392 1.325-.943 2.361-1.652 3.108-.691.747-1.493 1.27-2.408 1.568a9.061 9.061 0 01-2.884.448zm0-2.66c.747 0 1.4-.084 1.96-.252a2.537 2.537 0 001.372-1.008c.373-.523.644-1.279.812-2.268.187-.99.28-2.305.28-3.948 0-1.624-.084-2.93-.252-3.92-.168-1.008-.429-1.764-.784-2.268a2.633 2.633 0 00-1.4-1.064c-.56-.187-1.223-.28-1.988-.28-.803 0-1.484.093-2.044.28-.541.187-.989.541-1.344 1.064-.355.504-.616 1.26-.784 2.268-.168.99-.252 2.305-.252 3.948 0 1.624.084 2.93.252 3.92.168.99.429 1.745.784 2.268.373.504.84.84 1.4 1.008.56.168 1.223.252 1.988.252zM179.295 32l-7.756-10.108 7.196-9.408h3.584l-7.42 9.24v.168L183.047 32h-3.752zm-10.808 0l.084-9.912-.084-9.604h2.996V32h-2.996zM82.28 50.168c-.44 0-.856-.064-1.248-.192a2.496 2.496 0 01-1.044-.672c-.296-.32-.528-.764-.696-1.332-.168-.568-.252-1.292-.252-2.172 0-.88.084-1.6.252-2.16.168-.568.4-1.008.696-1.32.304-.32.652-.54 1.044-.66a3.996 3.996 0 011.248-.192c.44 0 .852.064 1.236.192.392.12.736.34 1.032.66.304.312.54.748.708 1.308.168.56.252 1.284.252 2.172 0 .88-.084 1.604-.252 2.172-.168.568-.404 1.012-.708 1.332a2.41 2.41 0 01-1.032.672 3.884 3.884 0 01-1.236.192zm0-1.14c.32 0 .6-.036.84-.108.24-.072.436-.216.588-.432.16-.224.276-.548.348-.972.08-.424.12-.988.12-1.692 0-.696-.036-1.256-.108-1.68-.072-.432-.184-.756-.336-.972a1.128 1.128 0 00-.6-.456c-.24-.08-.524-.12-.852-.12-.344 0-.636.04-.876.12-.232.08-.424.232-.576.456-.152.216-.264.54-.336.972-.072.424-.108.988-.108 1.692 0 .696.036 1.256.108 1.68.072.424.184.748.336.972.16.216.36.36.6.432.24.072.524.108.852.108zm5.184.972v-8.364h1.272l-.036 3.972-.564-.42h4.428l-.564.42-.036-3.972h1.272V50h-1.272L92 45.872l.564.42h-4.428l.564-.42.036 4.128h-1.272zm7.4.168l-.215-.948c.112-.016.216-.032.312-.048.096-.024.176-.048.24-.072a.835.835 0 00.372-.24c.088-.104.156-.28.204-.528.056-.248.096-.608.12-1.08l.372-5.616h4.848V50h-1.272l.06-7.272h-2.472l-.312 4.644a8.46 8.46 0 01-.204 1.428c-.096.384-.264.676-.504.876-.168.144-.392.26-.672.348a2.613 2.613 0 01-.876.144zm7.432-.168l2.28-8.364h1.728l2.28 8.364h-1.296l-.648-2.556.672.444h-3.72l.648-.444-.636 2.556h-1.308zm1.956-2.628l-.432-.576h3.252l-.432.576-1.296-5.148.708.552h-1.212l.696-.552-1.284 5.148zM109.788 50v-8.364h1.224l-.048 4.248v2.292l3.096-6.54h1.752V50h-1.224l.048-3.852v-3.216L111.3 50h-1.512zm2.988-8.676c-.608 0-1.08-.144-1.416-.432-.328-.288-.508-.748-.54-1.38l.816-.036c.04.288.144.504.312.648.168.144.444.216.828.216.424 0 .72-.072.888-.216.168-.144.272-.36.312-.648l.72.036c-.016.424-.104.772-.264 1.044-.16.264-.38.46-.66.588-.272.12-.604.18-.996.18zM118.167 50v-8.364h1.272l-.036 3.972-.564-.42h4.428l-.564.42-.036-3.972h1.272V50h-1.272l.036-4.128.564.42h-4.428l.564-.42.036 4.128h-1.272zm7.413-3.396v-1.068h2.856v1.068h-2.856zM130.037 50l.288-8.364h1.74l1.74 5.244h.084l1.764-5.244h1.74l.288 8.364h-1.26l-.048-7.032h-.084l-1.716 5.136h-1.44l-1.704-5.136h-.084L131.297 50h-1.26zm8.762 0l2.28-8.364h1.728L145.088 50h-1.297l-.648-2.556.672.444h-3.72l.648-.444-.636 2.556h-1.308zm1.956-2.628l-.432-.576h3.252l-.432.576-1.296-5.148.708.552h-1.212l.696-.552-1.284 5.148zM146.292 50l.048-3.888-.048-4.476.264-.024.708-.06a26.058 26.058 0 011.944-.084c.76 0 1.348.24 1.764.72.424.472.636 1.184.636 2.136 0 .592-.076 1.084-.228 1.476-.152.384-.356.684-.612.9a2.279 2.279 0 01-.852.468 3.52 3.52 0 01-.96.132c-.264 0-.536-.008-.816-.024a8.106 8.106 0 00-.576-.036V50h-1.272zm2.724-3.744c.24 0 .432-.016.576-.048a.755.755 0 00.36-.168c.12-.12.2-.332.24-.636.048-.304.072-.704.072-1.2 0-.4-.02-.704-.06-.912-.032-.216-.076-.368-.132-.456a.513.513 0 00-.168-.192c-.072-.056-.192-.1-.36-.132a2.62 2.62 0 00-.6-.06c-.272 0-.532.012-.78.036-.248.024-.448.048-.6.072v3.564c.08.008.26.032.54.072.288.04.592.06.912.06zM158.037 50l-3.324-4.332 3.084-4.032h1.536l-3.18 3.96v.072L159.645 50h-1.608zm-4.632 0l.036-4.248-.036-4.116h1.284V50h-1.284zm7.231 0v-8.364h4.392v1.104l-3.684-.048.588-.564-.096 3.552-.552-.468h3.444v1.068h-3.444l.552-.492.096 3.708-.588-.576 3.684-.024V50h-4.392zm7.408 0l.024-7.296-2.34.036v-1.104h5.916v1.104l-2.364-.036.024 7.296h-1.26z"/><path opacity=".2" d="M54.648 59.067c0-.512-11.474-.933-25.611-.933-14.138 0-25.612.421-25.612.933S14.9 60 29.037 60c14.17 0 25.611-.421 25.611-.933z"/><path d="M29.398 11.81c11.146 0 20.187 8.277 20.187 18.481v18.482H29.398c-11.145 0-20.186-8.278-20.186-18.482V11.81h20.186z"/><path opacity=".3" d="M46.692 20.78c-1.677 1.776-2.696 4.093-2.696 6.622 0 3.762 2.236 7.043 5.556 8.819v-5.93c0-3.461-1.019-6.712-2.86-9.511z"/><path d="M38.769 13.947c-3.157 1.655-5.26 4.756-5.26 8.338 0 5.297 4.7 9.602 10.487 9.602 2.038 0 3.945-.542 5.556-1.475v-.12c0-7.104-4.372-13.275-10.783-16.345z"/><path opacity=".5" d="M22.922 15.39c-5.195 0-9.962 1.656-13.71 4.456V30.32c0 10.205 9.04 18.482 20.186 18.482h9.666c3.518-3.552 5.655-8.247 5.655-13.425 0-11.046-9.764-19.986-21.797-19.986z"/><path d="M49.552 48.743l-20.154.03c-11.145 0-20.186-8.278-20.186-18.482V11.84l40.34 36.903z"/><path opacity=".3" d="M12.335 18.432c0 14.026 12.428 25.374 27.716 25.374 1.315 0 2.597-.09 3.846-.24L12.598 14.94a24.621 24.621 0 00-.263 3.492z"/><path opacity=".3" d="M49.552 48.773L9.376 11.99c4.734 6.472 10.192 13.034 15.748 18.452 4.34 4.214 16.866 13.635 24.428 18.33z"/><path opacity=".3" d="M22.395 23.88L9.212 11.84V30.32c0 8.157 5.786 15.08 13.775 17.519-3.419-3.161-5.523-7.495-5.523-12.251 0-4.515 1.874-8.609 4.931-11.71z"/><path opacity=".3" d="M40.347 40.345c-3.42 3.822-8.614 6.29-14.434 6.29-3.88 0-7.496-1.083-10.488-2.95 3.617 3.161 8.516 5.118 13.94 5.118h20.187v-.03l-9.205-8.428z"/><path opacity=".3" d="M10.395 22.887c0-2.98.56-5.87 1.611-8.519L9.212 11.84V30.32c0 10.204 9.04 18.482 20.186 18.482h20.187v-.03l-2.005-1.836a29.736 29.736 0 01-9.337 1.474c-15.387-.03-27.848-11.438-27.848-25.524z"/><path d="M49.224 52.355c1.413-.362 2.893.421 3.254 1.715.395 1.295-.46 2.65-1.907 2.98-1.413.361-2.893-.421-3.254-1.715-.362-1.295.493-2.62 1.907-2.98zm-.526-1.836c-2.532.632-4.044 2.98-3.354 5.297.657 2.318 3.255 3.702 5.786 3.07 2.532-.632 4.044-3.01 3.354-5.297-.658-2.318-3.255-3.672-5.787-3.07z"/><path opacity=".5" d="M52.05 56.177a2.821 2.821 0 01-1.446.903c-1.414.361-2.893-.422-3.255-1.716a2.298 2.298 0 01.888-2.498c-.395-.512-.724-1.084-1.052-1.656-1.578 1.024-2.367 2.86-1.841 4.666.657 2.318 3.254 3.702 5.786 3.07 1.184-.3 2.137-.963 2.762-1.836a34.044 34.044 0 01-1.841-.933z"/><path d="M10.165 52.355c1.413-.331 2.893.451 3.255 1.745.361 1.295-.494 2.65-1.907 2.98-1.414.331-2.894-.451-3.255-1.745-.362-1.295.493-2.65 1.907-2.98zm-.526-1.836c-2.532.602-4.044 2.98-3.387 5.297.658 2.318 3.255 3.702 5.787 3.1 2.531-.602 4.044-2.98 3.419-5.297-.69-2.318-3.288-3.703-5.82-3.1z"/><path opacity=".5" d="M12.96 56.207a2.596 2.596 0 01-1.447.873c-1.414.331-2.893-.452-3.255-1.746-.263-.963.132-1.926.888-2.498-.395-.512-.723-1.084-1.02-1.656-1.577.994-2.4 2.83-1.873 4.636.657 2.317 3.254 3.702 5.786 3.1 1.184-.27 2.17-.963 2.762-1.836-.658-.24-1.25-.542-1.841-.873z"/><path d="M10.494 10.546c-.625 0-1.15-.482-1.15-1.054 0-2.468-.757-4.334-2.204-5.568-2.334-2.017-5.852-1.806-5.885-1.806-.624.06-1.183-.392-1.25-.964C-.06.582.434.071 1.059.011c.197 0 4.537-.301 7.628 2.317 1.972 1.656 2.959 4.064 2.959 7.134 0 .602-.494 1.084-1.151 1.084z"/></svg><svg viewBox="0 0 49 29" id="mastercard" xmlns="http://www.w3.org/2000/svg"><g clip-path="url(#aoclip0)"><path d="M33.933 0a14.433 14.433 0 00-9.721 3.748A14.442 14.442 0 0014.495.003h-.093C6.444.055 0 6.529 0 14.498c0 8.001 6.494 14.494 14.494 14.494 3.737 0 7.145-1.417 9.716-3.745a14.336 14.336 0 01-1.482-1.584h2.993a14.492 14.492 0 01-1.472 1.553h-.002c-.012.013-.025.021-.037.032a14.44 14.44 0 009.728 3.749c8.005-.003 14.492-6.495 14.49-14.499v-.007C48.429 6.487 41.938-.002 33.933 0zM22.894 5.245h2.755c.406.492.783 1.01 1.125 1.552h-4.915a21.68 21.68 0 011.035-1.552zm-1.891 3.074h6.607c.235.502.443 1.021.625 1.553H20.22c.08-.15.36-.754.783-1.553zM5.917 18.19l.879-5.542-1.983 5.542H3.75l-.138-5.542-.939 5.542H1.184l1.234-7.35H4.67l.079 4.51 1.521-4.51h2.443l-1.217 7.35H5.917zm5.265-.012l.051-.587c-.024.003-.494.709-1.583.709-.57 0-1.49-.311-1.49-1.663 0-1.719 1.402-2.289 2.737-2.289.21 0 .663.038.663.038s.051-.105.051-.389c0-.467-.42-.531-.995-.531-1.013 0-1.682.271-1.682.271l.224-1.33s.812-.34 1.869-.34c.547 0 2.12.058 2.12 1.861l-.606 4.25h-1.359zm5.743-1.872c0 2.051-1.987 1.963-2.334 1.963-1.295 0-1.695-.179-1.732-.189l.206-1.35c.002-.012.65.235 1.371.235.416 0 .956-.041.956-.538 0-.744-1.932-.566-1.932-2.333 0-1.559 1.158-2.015 2.3-2.015.882 0 1.424.121 1.424.121l-.195 1.362s-.837-.069-1.054-.069c-.549 0-.848.12-.848.504-.001.772 1.838.394 1.838 2.309zm2.386.538c.137 0 .292-.047.398-.047l-.193 1.311c-.155.043-.594.199-1.157.203-.719.006-1.23-.396-1.23-1.308 0-.612.877-5.655.911-5.688h1.543l-.157.902h.77l-.197 1.453h-.817l-.434 2.677c-.033.213.026.497.563.497zm3.394-4.797c1.694 0 2.201 1.24 2.201 2.257 0 .407-.204 1.407-.204 1.407h-3.136s-.29 1.235 1.367 1.235c.777 0 1.639-.38 1.639-.38l-.272 1.487s-.498.254-1.63.254c-1.227 0-2.666-.519-2.666-2.699.001-1.889 1.149-3.561 2.701-3.561zm4.087 10.123H21.65c-.313-.5-.605-1.013-.856-1.552h6.843a14.886 14.886 0 01-.845 1.552zm-.345-3.969h-1.584l.963-5.982h1.437l-.138.867s.512-.943 1.203-.943c.201 0 .298.02.298.02-.205.418-.386.801-.574 1.79-1.072-.38-1.154 1.693-1.605 4.248zm6.035-.093s-.83.212-1.35.212c-1.842 0-2.777-1.271-2.777-3.196 0-2.903 1.733-4.449 3.514-4.449.805 0 1.738.378 1.738.378l-.252 1.635s-.631-.441-1.416-.441c-1.05 0-1.992 1.002-1.992 2.823 0 .897.439 1.733 1.535 1.733.521 0 1.276-.379 1.276-.379l-.276 1.684zm3.715.073l.052-.591c-.025.003-.495.709-1.583.709-.57 0-1.49-.311-1.49-1.663 0-1.719 1.402-2.289 2.736-2.289.21 0 .664.038.664.038s.052-.104.052-.388c0-.467-.42-.531-.996-.531-1.013 0-1.681.271-1.681.271l.224-1.33s.812-.34 1.87-.34c.546 0 2.12.058 2.119 1.861l-.606 4.25c-.001.003-1.361.003-1.361.003zm3.207.02H37.82l.963-5.982h1.438l-.138.867s.513-.943 1.204-.943c.201 0 .297.02.297.02-.204.418-.387.801-.574 1.79-1.073-.38-1.155 1.693-1.606 4.248zm4.729-.016l.067-.551s-.512.646-1.438.646c-1.283 0-1.912-1.239-1.912-2.505 0-1.958 1.178-3.665 2.592-3.665.91.002 1.491.805 1.491.805l.334-2.065 1.547-.003-1.18 7.338h-1.501zm3.052-.207a.461.461 0 01-.406.237.471.471 0 01-.404-.237.464.464 0 010-.466.475.475 0 01.404-.236c.08 0 .156.021.23.062a.461.461 0 01.176.64zM47.061 22.4c-.01-.006-.019-.017-.035-.023a.245.245 0 00-.08-.01h-.094v.15h.1c.047 0 .078-.003.096-.02a.066.066 0 00.025-.055.075.075 0 00-.012-.041z"/><path d="M11.022 15.495c-1.13 0-1.36.508-1.36.93 0 .219.125.583.604.583.93 0 1.122-1.218 1.092-1.477-.044-.01-.072-.035-.336-.036zM22.711 13.428c-.841 0-1.003.957-1.003 1.058h1.713c0-.077.161-1.058-.71-1.058zM43.709 13.595c-.68 0-1.216.788-1.215 1.985 0 .73.26 1.198.816 1.198.836 0 1.239-1.091 1.239-1.904 0-.897-.285-1.279-.84-1.279zM47.115 17.552a.377.377 0 00-.146-.145.381.381 0 00-.528.145.403.403 0 00-.053.195c0 .067.018.133.05.194a.409.409 0 00.34.2c.067 0 .133-.02.193-.054a.388.388 0 00.144-.535zm-.217.452l-.045-.078a.404.404 0 00-.084-.118.102.102 0 00-.066-.019h-.046v.214h-.084v-.504h.175c.059 0 .103.005.128.016a.143.143 0 01.064.048.116.116 0 01.023.074.136.136 0 01-.04.096c-.026.029-.062.041-.104.046.02.008.033.017.043.026a.51.51 0 01.074.099l.062.1h-.1zM36.039 15.495c-1.131 0-1.36.508-1.36.93 0 .219.124.583.604.583.929 0 1.121-1.218 1.092-1.477-.045-.01-.073-.035-.336-.036z"/><path d="M46.864 17.602a.091.091 0 00-.034-.025.283.283 0 00-.082-.01h-.091v.153h.099c.047 0 .078-.006.097-.021a.078.078 0 00.024-.056.067.067 0 00-.013-.041z"/></g><defs><clipPath id="aoclip0"><path d="M0 0h49v29H0z"/></clipPath></defs></svg><svg viewBox="0 0 25 17" id="menu" xmlns="http://www.w3.org/2000/svg"><path d="M0 0h24.896v1H0zM0 8h19.917v1H0zM0 16h24.896v1H0z"/></svg><svg viewBox="0 0 26 20" id="menu-black" xmlns="http://www.w3.org/2000/svg"><path d="M.842 0h24.793v1.12H.842zM.842 8.96h19.834v1.12H.842zM.842 17.92h24.793v1.12H.842z"/></svg><svg viewBox="0 0 16 2" id="minus" xmlns="http://www.w3.org/2000/svg"><path d="M15.333 0H.667a.667.667 0 100 1.333h14.666a.667.667 0 100-1.333z"/></svg><svg viewBox="0 0 16 16" id="plus" xmlns="http://www.w3.org/2000/svg"><g clip-path="url(#asclip0)"><path d="M15.2 7.2H8.8V.8a.8.8 0 00-1.6 0v6.4H.8a.8.8 0 000 1.6h6.4v6.4a.8.8 0 001.6 0V8.8h6.4a.8.8 0 000-1.6z"/></g><defs><clipPath id="asclip0"><path d="M0 0h16v16H0z"/></clipPath></defs></svg><svg viewBox="0 0 50 50" id="return" xmlns="http://www.w3.org/2000/svg"><path d="M33.691 50H11.72C5.257 50 0 44.743 0 38.281V11.72C0 5.257 5.257 0 11.719 0H38.28C44.743 0 50 5.257 50 11.719v17.285c-.103 2.591-3.804 2.59-3.906 0V11.719c0-4.308-3.505-7.813-7.813-7.813H11.72c-4.308 0-7.813 3.505-7.813 7.813V38.28c0 4.308 3.505 7.813 7.813 7.813H33.69c2.592.103 2.59 3.804 0 3.906zm-1.757-39.258A1.953 1.953 0 0029.98 8.79h-9.96c-2.592.103-2.59 3.804 0 3.906h9.96a1.953 1.953 0 001.954-1.953zm-.586 32.13c-.499 0-.998-.19-1.379-.57l-3.25-3.24A5.802 5.802 0 0125 34.928c0-1.563.61-3.032 1.718-4.136l3.266-3.186a1.953 1.953 0 112.727 2.797l-3.241 3.161c-.749.723-.746 2.013.006 2.733l3.25 3.238c1.235 1.224.338 3.347-1.378 3.337zm16.18 4.618c5.313-5.334 1.478-14.597-6.073-14.58h-6.982c-2.592.103-2.59 3.804 0 3.906h6.982a4.644 4.644 0 014.639 4.64c0 2.557-2.06 4.638-4.59 4.638-2.59.102-2.591 3.803 0 3.906a8.415 8.415 0 006.025-2.51z"/></svg><svg viewBox="0 0 21 20" id="search" xmlns="http://www.w3.org/2000/svg"><path d="M9.02 16.472C4.477 16.472.78 12.777.78 8.236S4.476 0 9.02 0c4.545 0 8.242 3.695 8.242 8.236s-3.697 8.236-8.242 8.236zm0-14.91c-3.682 0-6.679 2.994-6.679 6.674s2.997 6.675 6.68 6.675 6.68-2.995 6.68-6.675c0-3.68-2.997-6.675-6.68-6.675zm11.53 18.21a.78.78 0 000-1.105l-3.496-3.493a.782.782 0 00-1.105 1.104l3.496 3.493a.779.779 0 001.105 0z"/></svg><svg viewBox="0 0 21 20" id="search-link" xmlns="http://www.w3.org/2000/svg"><path d="M9.02 16.472C4.477 16.472.78 12.777.78 8.236S4.476 0 9.02 0c4.545 0 8.242 3.695 8.242 8.236s-3.697 8.236-8.242 8.236zm0-14.91c-3.682 0-6.679 2.994-6.679 6.674s2.997 6.675 6.68 6.675 6.68-2.995 6.68-6.675c0-3.68-2.997-6.675-6.68-6.675zm11.53 18.21a.78.78 0 000-1.105l-3.496-3.493a.782.782 0 00-1.105 1.104l3.496 3.493a.779.779 0 001.105 0z"/></svg><svg viewBox="0 0 16 16" id="star" xmlns="http://www.w3.org/2000/svg"><path d="M.023 5.796a.469.469 0 01.378-.32l4.96-.72L7.58.26a.469.469 0 01.84 0l2.219 4.495 4.96.72a.469.469 0 01.26.8l-3.59 3.499.848 4.94a.469.469 0 01-.68.494L8 12.877l-4.436 2.332a.469.469 0 01-.68-.494l.847-4.94-3.59-3.499a.469.469 0 01-.118-.48z"/></svg><svg viewBox="0 0 50 50" id="support" xmlns="http://www.w3.org/2000/svg"><g clip-path="url(#axclip0)"><path d="M48.866 17.536a1.465 1.465 0 00-2.796.873c.664 2.125 1 4.343 1 6.591 0 12.17-9.9 22.07-22.07 22.07S2.93 37.17 2.93 25 12.83 2.93 25 2.93a22.065 22.065 0 0115.165 6.037l-3.141-.783a1.465 1.465 0 00-.709 2.843l8.44 2.103.012.003a1.466 1.466 0 001.386-.397c.364-.37.505-.904.371-1.405l-2.242-8.388a1.465 1.465 0 00-2.83.757l.878 3.284A24.992 24.992 0 0025 0C18.322 0 12.044 2.6 7.322 7.322 2.6 12.044 0 18.322 0 25c0 6.678 2.6 12.956 7.322 17.678A24.837 24.837 0 0025 50c6.678 0 12.956-2.6 17.678-7.322C47.4 37.956 50 31.678 50 25c0-2.545-.382-5.056-1.134-7.464z"/><path d="M28.337 26.192h-.123v-7.46a1.465 1.465 0 00-2.644-.869l-6.558 8.91a1.464 1.464 0 001.177 2.333l5.095.01v2.24a1.465 1.465 0 002.93 0v-2.234H28.334a1.465 1.465 0 00.003-2.93zm-5.252-.01l2.2-2.989v2.993l-2.2-.004z"/><path d="M17.597 29.877h-4.338c.688-.8 1.496-1.583 2.25-2.314 1.906-1.849 3.553-3.445 3.553-5.301a5.062 5.062 0 00-5.058-5.055 5.043 5.043 0 00-4.655 3.088 1.465 1.465 0 002.699 1.139 2.118 2.118 0 011.957-1.297c1.172 0 2.127.953 2.127 2.125 0 .032-.018.332-.615 1.072-.516.64-1.26 1.362-2.048 2.126-1.589 1.542-3.39 3.288-4.28 5.286a1.463 1.463 0 001.338 2.06h7.07a1.465 1.465 0 000-2.929zM36.635 22.27c-.49 0-.961.09-1.4.257v-3.904a1.465 1.465 0 10-2.93 0v12.754a1.465 1.465 0 102.93 0v-4.101c.018-.093.028-.189.028-.287 0-.97.628-1.79 1.372-1.79.744 0 1.373.82 1.373 1.79v4.388a1.465 1.465 0 102.93 0V26.99c0-2.602-1.93-4.72-4.303-4.72z"/></g><defs><clipPath id="axclip0"><path d="M0 0h50v50H0z"/></clipPath></defs></svg><svg viewBox="0 0 23 22" id="tel" xmlns="http://www.w3.org/2000/svg"><path d="M21.463 16.517l-3.194-3.195a2.276 2.276 0 00-1.617-.662c-.64 0-1.242.251-1.698.707L13.71 14.61c-.966-.537-2.25-1.275-3.583-2.608-1.332-1.332-2.07-2.613-2.61-3.584l1.245-1.244c.925-.927.944-2.414.042-3.315L5.61.665A2.266 2.266 0 003.993 0a2.39 2.39 0 00-1.669.678C2.05.898.674 2.114.161 4.62c-.718 3.507.932 6.881 5.695 11.647C11.178 21.587 15.721 22 16.986 22c.264 0 .423-.016.465-.021 2.482-.291 3.37-1.393 4.02-2.198.84-1.043.837-2.415-.008-3.264zm-1.06 2.403c-.61.757-1.186 1.471-3.111 1.697-.001 0-.107.012-.306.012-1.132 0-5.211-.385-10.16-5.332C2.433 10.902.891 7.888 1.504 4.895c.448-2.186 1.635-3.115 1.682-3.15l.04-.03.037-.036a1.03 1.03 0 01.73-.308c.248 0 .478.093.647.263l3.194 3.194c.368.368.348.985-.043 1.377L6.384 7.611l-.023.025c-.367.404-.324.95-.122 1.305.583 1.052 1.382 2.493 2.918 4.03 1.532 1.532 2.97 2.33 4.02 2.911.105.06.321.158.593.158.32 0 .615-.135.832-.383l1.321-1.32c.198-.197.456-.306.728-.306.25 0 .48.093.649.261l3.192 3.193c.405.407.238 1.03-.09 1.435zM13.388 3.36c1.178.135 2.566.849 3.534 1.818.978.977 1.693 2.379 1.822 3.57a.686.686 0 101.364-.148c-.164-1.506-1.013-3.188-2.216-4.392-1.192-1.192-2.858-2.04-4.347-2.21a.686.686 0 10-.157 1.362zM12.748 6.232c.637.073 1.519.546 2.096 1.124.583.582 1.056 1.473 1.126 2.117a.686.686 0 001.364-.148c-.12-1.1-.85-2.268-1.52-2.939-.665-.665-1.822-1.391-2.91-1.516a.685.685 0 10-.156 1.362z"/></svg><svg viewBox="0 0 24 24" id="tel-black" xmlns="http://www.w3.org/2000/svg"><path d="M23.309 17.938l-3.469-3.47a2.472 2.472 0 00-1.756-.72c-.694 0-1.349.274-1.844.77l-1.35 1.35c-1.05-.584-2.444-1.386-3.892-2.834-1.446-1.447-2.248-2.837-2.834-3.892l1.351-1.35c1.005-1.007 1.026-2.623.046-3.601L6.093.722A2.461 2.461 0 004.336 0c-.678 0-1.32.261-1.812.736-.298.24-1.792 1.56-2.35 4.28-.78 3.81 1.013 7.474 6.186 12.65 5.78 5.777 10.713 6.226 12.088 6.226.286 0 .459-.017.505-.023 2.695-.316 3.66-1.512 4.364-2.386.913-1.133.91-2.624-.008-3.545zm-1.151 2.61c-.662.821-1.288 1.597-3.379 1.842 0 0-.115.013-.331.013-1.23 0-5.66-.418-11.035-5.79C2.643 11.84.968 8.567 1.633 5.316 2.12 2.942 3.41 1.933 3.46 1.895l.044-.033.04-.04c.215-.214.496-.333.792-.333.27 0 .52.101.703.286l3.47 3.469c.398.399.377 1.07-.048 1.495L6.933 8.266l-.025.027c-.399.438-.352 1.031-.132 1.417.633 1.143 1.5 2.708 3.169 4.377 1.663 1.663 3.226 2.53 4.365 3.162.114.064.35.171.644.171.348 0 .668-.147.905-.416l1.434-1.434c.214-.214.495-.332.79-.332a.99.99 0 01.705.284l3.467 3.468c.44.442.258 1.117-.097 1.558zM14.54 3.649c1.28.147 2.786.922 3.838 1.974 1.062 1.062 1.839 2.584 1.979 3.877a.745.745 0 101.48-.16c-.177-1.635-1.1-3.463-2.406-4.77-1.295-1.295-3.104-2.215-4.72-2.4a.745.745 0 10-.171 1.479zM13.844 6.768c.692.08 1.65.593 2.277 1.22.633.633 1.147 1.6 1.223 2.3a.745.745 0 101.48-.16c-.129-1.195-.922-2.464-1.65-3.193-.721-.721-1.978-1.51-3.16-1.646a.744.744 0 10-.17 1.48z"/></svg><svg viewBox="0 0 32 32" id="telegram" xmlns="http://www.w3.org/2000/svg"><g clip-path="url(#baclip0)"><path d="M12.556 20.241l-.53 7.446c.758 0 1.086-.326 1.48-.716l3.55-3.394 7.357 5.388c1.35.752 2.3.356 2.664-1.24l4.83-22.63.001-.002c.428-1.994-.721-2.774-2.036-2.285L1.485 13.676c-1.937.752-1.908 1.832-.329 2.321l7.257 2.258L25.271 7.707c.793-.526 1.514-.235.921.29L12.556 20.241z"/></g><defs><clipPath id="baclip0"><path d="M0 0h32v32H0z"/></clipPath></defs></svg><svg viewBox="0 0 25 32" id="user-link" xmlns="http://www.w3.org/2000/svg"><path d="M22.678 19.943a12.5 12.5 0 00-4.085-3.779 9.242 9.242 0 003.093-6.902C21.686 4.155 17.531 0 12.424 0S3.162 4.155 3.162 9.262a9.242 9.242 0 003.092 6.902 12.5 12.5 0 00-4.085 3.779A12.322 12.322 0 000 26.936V32h24.848v-5.064c0-2.505-.75-4.923-2.17-6.993zM5.101 9.263c0-4.039 3.285-7.324 7.323-7.324s7.323 3.285 7.323 7.323-3.285 7.323-7.323 7.323S5.1 13.3 5.1 9.262zM1.939 30.06v-3.125c0-4.109 2.38-7.794 6.101-9.516a9.205 9.205 0 004.384 1.104c1.585 0 3.078-.4 4.383-1.104 3.721 1.722 6.101 5.407 6.101 9.516v3.125H1.94z"/></svg><svg viewBox="0 0 93 29" id="visa" xmlns="http://www.w3.org/2000/svg"><path d="M37.109.474l-4.71 27.58h7.533L44.646.475h-7.537zM26.083.505l-7.378 18.81-.787-2.841C16.463 13.052 12.332 8.138 7.483 5.04l6.746 23.001 7.971-.013L34.063.498l-7.98.007z"/><path d="M15.058 2.479C14.62.799 13.351.298 11.776.238H.096L0 .787c9.089 2.2 15.103 7.501 17.598 13.875L15.058 2.48zM59.913 5.761c2.465-.038 4.251.5 5.638 1.056l.68.319 1.02-5.978C65.759.6 63.42 0 60.502 0c-7.444 0-12.69 3.741-12.731 9.102-.049 3.961 3.737 6.173 6.597 7.494 2.935 1.353 3.92 2.213 3.906 3.422-.023 1.846-2.34 2.693-4.505 2.693-3.016 0-4.618-.416-7.093-1.444l-.97-.441-1.06 6.173c1.763.771 5.016 1.434 8.393 1.47 7.919 0 13.065-3.697 13.119-9.426.033-3.134-1.976-5.525-6.33-7.487-2.635-1.28-4.247-2.131-4.232-3.422 0-1.147 1.368-2.373 4.317-2.373zM86.583.505h-5.82c-1.808 0-3.153.49-3.947 2.289L65.631 28.07h7.91s1.291-3.399 1.584-4.143c.866 0 8.552.012 9.647.012.224.962.918 4.131.918 4.131h6.988L86.583.505zm-9.29 17.777c.62-1.584 3-7.709 3-7.709-.04.076.615-1.595 1.004-2.633l.508 2.378 1.746 7.964h-6.258z"/></svg><svg viewBox="0 0 32 32" id="youtube" xmlns="http://www.w3.org/2000/svg"><g clip-path="url(#bdclip0)"><path d="M31.292 7.905l.04.262c-.387-1.372-1.43-2.43-2.757-2.816l-.028-.007c-2.495-.677-12.534-.677-12.534-.677S6 4.653 3.48 5.344A4.059 4.059 0 00.703 8.14l-.007.028c-.932 4.868-.939 10.717.041 15.93l-.041-.265c.387 1.372 1.43 2.43 2.757 2.816l.028.007c2.492.678 12.534.678 12.534.678s10.012 0 12.533-.678a4.058 4.058 0 002.779-2.795l.006-.028c.424-2.264.667-4.87.667-7.53l-.001-.295L32 15.7a43.01 43.01 0 00-.708-7.795zM12.811 20.868v-9.724l8.354 4.87-8.354 4.854z"/></g><defs><clipPath id="bdclip0"><path d="M0 0h32v32H0z"/></clipPath></defs></svg></svg>