<svg width="44" height="39" viewBox="0 0 44 39" fill="none" xmlns="http://www.w3.org/2000/svg">
<path d="M40.7897 3.81855C38.6195 1.35609 35.6089 0 32.3125 0C27.6763 0 24.7411 2.76891 23.0953 5.0918C22.6682 5.69456 22.305 6.29896 22 6.8677C21.695 6.29896 21.3318 5.69456 20.9047 5.0918C19.2589 2.76891 16.3237 0 11.6875 0C8.39111 0 5.38046 1.35618 3.2102 3.81863C1.14013 6.16765 0 9.31365 0 12.6771C0 16.3383 1.4294 19.7435 4.4984 23.3935C7.24127 26.6557 11.1873 30.0182 15.7566 33.912C17.4593 35.3629 19.2201 36.8634 21.0946 38.5035L21.1509 38.5528C21.394 38.7656 21.697 38.8719 22 38.8719C22.303 38.8719 22.606 38.7655 22.8491 38.5528L22.9054 38.5035C24.7799 36.8634 26.5407 35.363 28.2436 33.9118C32.8127 30.0183 36.7587 26.6558 39.5016 23.3935C42.5706 19.7435 44 16.3383 44 12.6771C44 9.31365 42.8599 6.16765 40.7897 3.81855ZM26.5713 31.9497C25.1035 33.2004 23.5929 34.4877 22 35.8724C20.4072 34.4878 18.8965 33.2005 17.4285 31.9495C8.4859 24.3292 2.57812 19.2949 2.57812 12.6771C2.57812 9.94168 3.48949 7.40102 5.14439 5.5232C6.81828 3.62407 9.14194 2.57812 11.6875 2.57812C15.222 2.57812 17.5068 4.75561 18.8011 6.5823C19.962 8.22061 20.5678 9.87216 20.7744 10.5061C20.9472 11.0368 21.4419 11.3959 22 11.3959C22.5581 11.3959 23.0528 11.0368 23.2256 10.5061C23.4322 9.87216 24.038 8.22061 25.1989 6.58221C26.4932 4.75561 28.778 2.57812 32.3125 2.57812C34.8581 2.57812 37.1817 3.62407 38.8555 5.5232C40.5105 7.40102 41.4219 9.94168 41.4219 12.6771C41.4219 19.2949 35.5141 24.3292 26.5713 31.9497Z" fill="#C1C1C1"/>
</svg>
