<svg width="80" height="31" viewBox="0 0 80 31" fill="none" xmlns="http://www.w3.org/2000/svg">
<g clip-path="url(#clip0)">
<path d="M15.2258 30.3374C6.90678 30.3374 0.138626 23.5637 0.138626 15.2386C0.138626 6.91264 6.90678 0.139282 15.2258 0.139282C23.5445 0.139282 30.3124 6.91292 30.3124 15.2386C30.3124 23.5637 23.5445 30.3374 15.2258 30.3374Z" fill="white"/>
<path d="M15.2258 0.277937C23.4811 0.277937 30.1738 6.97583 30.1738 15.2385C30.1738 23.5012 23.4811 30.1988 15.2258 30.1988C6.97005 30.1988 0.277338 23.5009 0.277338 15.2385C0.277338 6.9761 6.97005 0.277937 15.2258 0.277937ZM15.2258 0.000488281C6.83027 0.000488281 0 6.83627 0 15.2385C0 23.6411 6.83027 30.4763 15.2258 30.4763C23.6211 30.4763 30.4511 23.6402 30.4511 15.2385C30.4511 6.83627 23.6211 0.000488281 15.2258 0.000488281Z" fill="#004883"/>
<path d="M79.7198 9.10203C79.8876 8.90615 79.9999 8.68281 79.9999 8.40286C80.002 8.12499 79.9024 7.85595 79.7198 7.64654C79.5232 7.4501 79.2728 7.33801 78.9918 7.33801C78.7128 7.33801 78.4893 7.45038 78.2644 7.64654C78.0694 7.84269 77.9843 8.09462 77.9843 8.40286C77.9843 8.68281 78.0694 8.90615 78.2644 9.10203C78.4893 9.29819 78.7128 9.38198 78.9918 9.38198C79.2728 9.38198 79.5232 9.29819 79.7198 9.10203ZM79.7767 19.4062V10.3622H78.2646L78.2932 19.4062H79.7767ZM76.2772 10.8106L76.026 10.6982C75.354 10.3059 74.5419 10.1103 73.5629 10.1103C72.4991 10.1103 71.6316 10.3619 70.9879 10.8661C70.652 11.1183 70.4279 11.3699 70.2601 11.7064C70.0926 12.0141 70.0077 12.3221 70.0077 12.6858C70.0077 13.3021 70.2884 13.8059 70.7926 14.2537C71.2677 14.674 71.9671 15.01 72.8909 15.2897C73.6742 15.5416 74.2061 15.7938 74.5419 16.046C74.8223 16.3262 74.9904 16.6339 74.9904 17.0257C74.9904 17.4457 74.7663 17.7817 74.3739 18.062C73.9817 18.2861 73.4215 18.426 72.7229 18.426C71.9666 18.426 71.2117 18.2298 70.4279 17.8652L70.2318 17.726L69.5881 18.9015L69.8128 19.0136C70.68 19.4337 71.6321 19.6293 72.6674 19.6293C73.787 19.6293 74.7106 19.4054 75.438 18.9015C75.8019 18.6773 76.054 18.3699 76.2501 18.0622C76.445 17.6982 76.5296 17.3056 76.5296 16.9139V16.885C76.5296 16.2133 76.2501 15.6251 75.7181 15.1496C75.2708 14.7581 74.5428 14.4216 73.5909 14.1419C72.8629 13.8889 72.3316 13.6372 72.0234 13.4413C71.6876 13.1889 71.5478 12.9095 71.5478 12.6015C71.5478 12.2372 71.6876 11.9578 71.9963 11.7059C72.3316 11.4814 72.7786 11.3413 73.3669 11.3413C74.1786 11.3413 74.8503 11.4814 75.3823 11.8174L75.5784 11.9575L76.2772 10.8106ZM67.1537 11.4823C66.1181 10.5864 64.831 10.1106 63.3467 10.1106C61.8915 10.1106 60.6881 10.5581 59.7088 11.4262C58.6167 12.4067 58.0576 13.7501 58.0576 15.5141V22.5419H59.5122V18.0062C59.9604 18.5098 60.5209 18.9021 61.192 19.1826C61.8637 19.49 62.5912 19.6298 63.3755 19.6298C64.8587 19.6298 66.1181 19.1826 67.1537 18.2295C68.2175 17.3056 68.7484 16.1861 68.7484 14.8696C68.7484 13.526 68.2175 12.4064 67.1537 11.4823ZM63.3467 11.3699C64.4388 11.3699 65.3898 11.7064 66.1173 12.3779C66.8736 13.0498 67.2654 13.8894 67.2654 14.8985C67.2654 15.8496 66.929 16.6337 66.2576 17.3056C65.5301 18.0056 64.5506 18.3699 63.3752 18.3699C62.1988 18.3699 61.2469 18.0059 60.4917 17.3056C59.7926 16.6062 59.457 15.8221 59.457 14.8985C59.457 13.9738 59.7929 13.1622 60.4917 12.4897C61.22 11.7622 62.1719 11.3699 63.3467 11.3699ZM55.734 11.9306C54.7553 10.6982 53.3556 10.1103 51.4799 10.1103C50.0805 10.1103 48.8763 10.5023 47.8413 11.3419C46.7222 12.21 46.1625 13.3864 46.1625 14.8422C46.1625 15.654 46.3861 16.4661 46.8617 17.2218C47.2822 17.9496 47.9256 18.5381 48.7934 18.9856C49.6606 19.4059 50.5841 19.6015 51.5917 19.6015C52.5435 19.6015 53.4388 19.4059 54.3071 18.9856C55.1738 18.5381 55.8178 17.9496 56.2377 17.2218L56.5178 16.7457H54.8948C54.5584 17.2218 54.0819 17.6142 53.4673 17.9218C52.8516 18.2295 52.1799 18.3699 51.536 18.3699C50.6404 18.3699 49.8847 18.1452 49.2127 17.6974C48.541 17.2216 48.0936 16.6337 47.8135 15.8496C48.7365 15.4856 49.6606 15.2894 50.6687 15.2894L52.1799 15.457L54.5306 15.6815C55.2581 15.6815 55.8749 15.5694 56.4337 15.4018C56.6581 15.3174 56.7976 15.2053 56.8542 15.0652C56.9377 14.9534 56.9377 14.7581 56.8825 14.5331C56.7136 13.526 56.35 12.6584 55.734 11.9306ZM55.343 14.2271L55.3707 14.2826L54.5587 14.3944L52.7956 14.2268L50.3326 14.0301H49.9127C49.1289 14.0861 48.4015 14.2268 47.7015 14.4782C47.813 13.4419 48.3175 12.6295 49.1572 12.0422C49.8564 11.5935 50.6407 11.3419 51.4799 11.3419C52.7948 11.3419 53.8029 11.7619 54.5587 12.602C54.9508 13.1064 55.2301 13.638 55.343 14.2271ZM39.6407 10.1103C38.2132 10.1103 36.9818 10.5578 36.0023 11.4259C34.9107 12.4064 34.3787 13.7499 34.3787 15.5136L34.351 22.5414H35.8625L35.8342 18.0056C36.2821 18.5095 36.8418 18.9015 37.4858 19.182C38.1852 19.4897 38.9132 19.629 39.6967 19.629C41.1802 19.629 42.4396 19.182 43.4754 18.2293C44.5387 17.3054 45.0424 16.1853 45.0424 14.8691C45.0424 13.5251 44.5387 12.4056 43.5029 11.4814C42.4396 10.5861 41.1802 10.1103 39.6407 10.1103ZM36.786 12.49C37.5418 11.7622 38.4656 11.3699 39.6407 11.3699C40.7606 11.3699 41.6841 11.7064 42.439 12.3779C43.1956 13.0498 43.5586 13.8894 43.5586 14.8985C43.5586 15.8496 43.2233 16.6337 42.5788 17.3056C41.8519 18.0056 40.9001 18.3699 39.6687 18.3699C38.5211 18.3699 37.5418 18.0059 36.7858 17.3056C36.114 16.6062 35.7782 15.8221 35.7782 14.8985C35.7785 13.974 36.114 13.1625 36.786 12.49Z" fill="#004883"/>
<path d="M23.7734 3.90214C23.6449 3.80483 23.523 3.69918 23.4084 3.58585C21.0143 1.89653 18.1555 0.991625 15.2258 0.995864C7.3669 0.995864 0.995894 7.37219 0.995894 15.2379C0.99155 18.3029 1.97942 21.287 3.8117 23.7436C8.57359 22.3369 12.7281 19.8896 16.2886 16.3524C19.8446 12.8321 22.3434 8.66566 23.7734 3.90214Z" fill="#E32934"/>
<path d="M15.2258 29.4799C23.0841 29.4799 29.4551 23.1028 29.4551 15.2376C29.4551 12.4534 28.6564 9.85736 27.2769 7.66412C27.2407 7.62796 27.2082 7.58827 27.1799 7.54565C27.4694 8.50154 27.616 9.49501 27.615 10.4938C27.615 12.11 27.2417 13.6395 26.5084 15.0717C25.7833 16.4319 24.7639 17.613 23.5245 18.529C22.53 19.2629 21.3364 19.8849 19.9311 20.3949C18.8126 20.8044 17.3577 21.2278 15.5553 21.6376L10.3579 22.8076C8.1484 23.3142 6.13603 23.8563 4.34332 24.4115C6.95335 27.5114 10.8594 29.4799 15.2258 29.4799Z" fill="#004883"/>
</g>
<defs>
<clipPath id="clip0">
<rect width="80" height="30.4762" fill="white"/>
</clipPath>
</defs>
</svg>
